<mxfile host="app.diagrams.net" agent="Mozilla/5.0 (X11; Linux x86_64) AppleWebKit/537.36 (KHTML, like Gecko) Chrome/135.0.0.0 Safari/537.36" version="26.2.14">
  <diagram name="PÃ¡gina-1" id="4EzrbHu0KsXSBfkLMYvI">
    <mxGraphModel dx="1930" dy="651" grid="1" gridSize="10" guides="1" tooltips="1" connect="1" arrows="1" fold="1" page="1" pageScale="1" pageWidth="827" pageHeight="1169" math="0" shadow="0">
      <root>
        <mxCell id="0" />
        <mxCell id="1" parent="0" />
        <mxCell id="Ro0mRmNBbLsTKMQBNC6t-1" value="PCGamerBuilder" style="swimlane;fontStyle=1;align=center;verticalAlign=top;childLayout=stackLayout;horizontal=1;startSize=26;horizontalStack=0;resizeParent=1;resizeParentMax=0;resizeLast=0;collapsible=1;marginBottom=0;whiteSpace=wrap;html=1;" parent="1" vertex="1">
          <mxGeometry x="359" y="420" width="160" height="152" as="geometry" />
        </mxCell>
        <mxCell id="Ro0mRmNBbLsTKMQBNC6t-3" value="" style="line;strokeWidth=1;fillColor=none;align=left;verticalAlign=middle;spacingTop=-1;spacingLeft=3;spacingRight=3;rotatable=0;labelPosition=right;points=[];portConstraint=eastwest;strokeColor=inherit;" parent="Ro0mRmNBbLsTKMQBNC6t-1" vertex="1">
          <mxGeometry y="26" width="160" height="8" as="geometry" />
        </mxCell>
        <mxCell id="Ro0mRmNBbLsTKMQBNC6t-65" value="+ setCpu(String cpu)" style="text;strokeColor=none;fillColor=none;align=left;verticalAlign=top;spacingLeft=4;spacingRight=4;overflow=hidden;rotatable=0;points=[[0,0.5],[1,0.5]];portConstraint=eastwest;whiteSpace=wrap;html=1;fontStyle=0" parent="Ro0mRmNBbLsTKMQBNC6t-1" vertex="1">
          <mxGeometry y="34" width="160" height="26" as="geometry" />
        </mxCell>
        <mxCell id="Ro0mRmNBbLsTKMQBNC6t-68" value="+ setRam(String ram)" style="text;strokeColor=none;fillColor=none;align=left;verticalAlign=top;spacingLeft=4;spacingRight=4;overflow=hidden;rotatable=0;points=[[0,0.5],[1,0.5]];portConstraint=eastwest;whiteSpace=wrap;html=1;fontStyle=0" parent="Ro0mRmNBbLsTKMQBNC6t-1" vertex="1">
          <mxGeometry y="60" width="160" height="26" as="geometry" />
        </mxCell>
        <mxCell id="Ro0mRmNBbLsTKMQBNC6t-67" value="+ setGpu(String gpu)" style="text;strokeColor=none;fillColor=none;align=left;verticalAlign=top;spacingLeft=4;spacingRight=4;overflow=hidden;rotatable=0;points=[[0,0.5],[1,0.5]];portConstraint=eastwest;whiteSpace=wrap;html=1;fontStyle=0" parent="Ro0mRmNBbLsTKMQBNC6t-1" vertex="1">
          <mxGeometry y="86" width="160" height="26" as="geometry" />
        </mxCell>
        <mxCell id="Ro0mRmNBbLsTKMQBNC6t-66" value="+ setGabinete(String gabinete)" style="text;strokeColor=none;fillColor=none;align=left;verticalAlign=top;spacingLeft=4;spacingRight=4;overflow=hidden;rotatable=0;points=[[0,0.5],[1,0.5]];portConstraint=eastwest;whiteSpace=wrap;html=1;fontStyle=0" parent="Ro0mRmNBbLsTKMQBNC6t-1" vertex="1">
          <mxGeometry y="112" width="160" height="40" as="geometry" />
        </mxCell>
        <mxCell id="Ro0mRmNBbLsTKMQBNC6t-5" value="PCBasicaBuilder" style="swimlane;fontStyle=1;align=center;verticalAlign=top;childLayout=stackLayout;horizontal=1;startSize=26;horizontalStack=0;resizeParent=1;resizeParentMax=0;resizeLast=0;collapsible=1;marginBottom=0;whiteSpace=wrap;html=1;" parent="1" vertex="1">
          <mxGeometry x="-11" y="420" width="160" height="152" as="geometry" />
        </mxCell>
        <mxCell id="Ro0mRmNBbLsTKMQBNC6t-7" value="" style="line;strokeWidth=1;fillColor=none;align=left;verticalAlign=middle;spacingTop=-1;spacingLeft=3;spacingRight=3;rotatable=0;labelPosition=right;points=[];portConstraint=eastwest;strokeColor=inherit;" parent="Ro0mRmNBbLsTKMQBNC6t-5" vertex="1">
          <mxGeometry y="26" width="160" height="8" as="geometry" />
        </mxCell>
        <mxCell id="Ro0mRmNBbLsTKMQBNC6t-57" value="+ setCpu(String cpu)" style="text;strokeColor=none;fillColor=none;align=left;verticalAlign=top;spacingLeft=4;spacingRight=4;overflow=hidden;rotatable=0;points=[[0,0.5],[1,0.5]];portConstraint=eastwest;whiteSpace=wrap;html=1;fontStyle=0" parent="Ro0mRmNBbLsTKMQBNC6t-5" vertex="1">
          <mxGeometry y="34" width="160" height="26" as="geometry" />
        </mxCell>
        <mxCell id="Ro0mRmNBbLsTKMQBNC6t-60" value="+ setGabinete(String gabinete)" style="text;strokeColor=none;fillColor=none;align=left;verticalAlign=top;spacingLeft=4;spacingRight=4;overflow=hidden;rotatable=0;points=[[0,0.5],[1,0.5]];portConstraint=eastwest;whiteSpace=wrap;html=1;fontStyle=0" parent="Ro0mRmNBbLsTKMQBNC6t-5" vertex="1">
          <mxGeometry y="60" width="160" height="40" as="geometry" />
        </mxCell>
        <mxCell id="Ro0mRmNBbLsTKMQBNC6t-59" value="+ setGpu(String gpu)" style="text;strokeColor=none;fillColor=none;align=left;verticalAlign=top;spacingLeft=4;spacingRight=4;overflow=hidden;rotatable=0;points=[[0,0.5],[1,0.5]];portConstraint=eastwest;whiteSpace=wrap;html=1;fontStyle=0" parent="Ro0mRmNBbLsTKMQBNC6t-5" vertex="1">
          <mxGeometry y="100" width="160" height="26" as="geometry" />
        </mxCell>
        <mxCell id="Ro0mRmNBbLsTKMQBNC6t-58" value="+ setRam(String ram)" style="text;strokeColor=none;fillColor=none;align=left;verticalAlign=top;spacingLeft=4;spacingRight=4;overflow=hidden;rotatable=0;points=[[0,0.5],[1,0.5]];portConstraint=eastwest;whiteSpace=wrap;html=1;fontStyle=0" parent="Ro0mRmNBbLsTKMQBNC6t-5" vertex="1">
          <mxGeometry y="126" width="160" height="26" as="geometry" />
        </mxCell>
        <mxCell id="Ro0mRmNBbLsTKMQBNC6t-9" value="PCIntermediaBuilder" style="swimlane;fontStyle=1;align=center;verticalAlign=top;childLayout=stackLayout;horizontal=1;startSize=26;horizontalStack=0;resizeParent=1;resizeParentMax=0;resizeLast=0;collapsible=1;marginBottom=0;whiteSpace=wrap;html=1;" parent="1" vertex="1">
          <mxGeometry x="173" y="420" width="160" height="152" as="geometry" />
        </mxCell>
        <mxCell id="Ro0mRmNBbLsTKMQBNC6t-11" value="" style="line;strokeWidth=1;fillColor=none;align=left;verticalAlign=middle;spacingTop=-1;spacingLeft=3;spacingRight=3;rotatable=0;labelPosition=right;points=[];portConstraint=eastwest;strokeColor=inherit;" parent="Ro0mRmNBbLsTKMQBNC6t-9" vertex="1">
          <mxGeometry y="26" width="160" height="8" as="geometry" />
        </mxCell>
        <mxCell id="Ro0mRmNBbLsTKMQBNC6t-61" value="+ setCpu(String cpu)" style="text;strokeColor=none;fillColor=none;align=left;verticalAlign=top;spacingLeft=4;spacingRight=4;overflow=hidden;rotatable=0;points=[[0,0.5],[1,0.5]];portConstraint=eastwest;whiteSpace=wrap;html=1;fontStyle=0" parent="Ro0mRmNBbLsTKMQBNC6t-9" vertex="1">
          <mxGeometry y="34" width="160" height="26" as="geometry" />
        </mxCell>
        <mxCell id="Ro0mRmNBbLsTKMQBNC6t-64" value="+ setRam(String ram)" style="text;strokeColor=none;fillColor=none;align=left;verticalAlign=top;spacingLeft=4;spacingRight=4;overflow=hidden;rotatable=0;points=[[0,0.5],[1,0.5]];portConstraint=eastwest;whiteSpace=wrap;html=1;fontStyle=0" parent="Ro0mRmNBbLsTKMQBNC6t-9" vertex="1">
          <mxGeometry y="60" width="160" height="26" as="geometry" />
        </mxCell>
        <mxCell id="Ro0mRmNBbLsTKMQBNC6t-63" value="+ setGpu(String gpu)" style="text;strokeColor=none;fillColor=none;align=left;verticalAlign=top;spacingLeft=4;spacingRight=4;overflow=hidden;rotatable=0;points=[[0,0.5],[1,0.5]];portConstraint=eastwest;whiteSpace=wrap;html=1;fontStyle=0" parent="Ro0mRmNBbLsTKMQBNC6t-9" vertex="1">
          <mxGeometry y="86" width="160" height="26" as="geometry" />
        </mxCell>
        <mxCell id="Ro0mRmNBbLsTKMQBNC6t-62" value="+ setGabinete(String gabinete)" style="text;strokeColor=none;fillColor=none;align=left;verticalAlign=top;spacingLeft=4;spacingRight=4;overflow=hidden;rotatable=0;points=[[0,0.5],[1,0.5]];portConstraint=eastwest;whiteSpace=wrap;html=1;fontStyle=0" parent="Ro0mRmNBbLsTKMQBNC6t-9" vertex="1">
          <mxGeometry y="112" width="160" height="40" as="geometry" />
        </mxCell>
        <mxCell id="Ro0mRmNBbLsTKMQBNC6t-13" value="Catalogo" style="swimlane;fontStyle=1;align=center;verticalAlign=top;childLayout=stackLayout;horizontal=1;startSize=26;horizontalStack=0;resizeParent=1;resizeParentMax=0;resizeLast=0;collapsible=1;marginBottom=0;whiteSpace=wrap;html=1;" parent="1" vertex="1">
          <mxGeometry x="510" y="60" width="180" height="74" as="geometry" />
        </mxCell>
        <mxCell id="Ro0mRmNBbLsTKMQBNC6t-15" value="" style="line;strokeWidth=1;fillColor=none;align=left;verticalAlign=middle;spacingTop=-1;spacingLeft=3;spacingRight=3;rotatable=0;labelPosition=right;points=[];portConstraint=eastwest;strokeColor=inherit;" parent="Ro0mRmNBbLsTKMQBNC6t-13" vertex="1">
          <mxGeometry y="26" width="180" height="8" as="geometry" />
        </mxCell>
        <mxCell id="Ro0mRmNBbLsTKMQBNC6t-16" value="+ getComponente(String descripcion): Componente" style="text;strokeColor=none;fillColor=none;align=left;verticalAlign=top;spacingLeft=4;spacingRight=4;overflow=hidden;rotatable=0;points=[[0,0.5],[1,0.5]];portConstraint=eastwest;whiteSpace=wrap;html=1;" parent="Ro0mRmNBbLsTKMQBNC6t-13" vertex="1">
          <mxGeometry y="34" width="180" height="40" as="geometry" />
        </mxCell>
        <mxCell id="Ro0mRmNBbLsTKMQBNC6t-18" value="Componente" style="swimlane;fontStyle=1;align=center;verticalAlign=top;childLayout=stackLayout;horizontal=1;startSize=26;horizontalStack=0;resizeParent=1;resizeParentMax=0;resizeLast=0;collapsible=1;marginBottom=0;whiteSpace=wrap;html=1;" parent="1" vertex="1">
          <mxGeometry x="780" y="60" width="160" height="242" as="geometry" />
        </mxCell>
        <mxCell id="Ro0mRmNBbLsTKMQBNC6t-19" value="-nombre: String" style="text;strokeColor=none;fillColor=none;align=left;verticalAlign=top;spacingLeft=4;spacingRight=4;overflow=hidden;rotatable=0;points=[[0,0.5],[1,0.5]];portConstraint=eastwest;whiteSpace=wrap;html=1;" parent="Ro0mRmNBbLsTKMQBNC6t-18" vertex="1">
          <mxGeometry y="26" width="160" height="26" as="geometry" />
        </mxCell>
        <mxCell id="Ro0mRmNBbLsTKMQBNC6t-22" value="-descripcion: String" style="text;strokeColor=none;fillColor=none;align=left;verticalAlign=top;spacingLeft=4;spacingRight=4;overflow=hidden;rotatable=0;points=[[0,0.5],[1,0.5]];portConstraint=eastwest;whiteSpace=wrap;html=1;" parent="Ro0mRmNBbLsTKMQBNC6t-18" vertex="1">
          <mxGeometry y="52" width="160" height="26" as="geometry" />
        </mxCell>
        <mxCell id="Ro0mRmNBbLsTKMQBNC6t-23" value="-precio: Real" style="text;strokeColor=none;fillColor=none;align=left;verticalAlign=top;spacingLeft=4;spacingRight=4;overflow=hidden;rotatable=0;points=[[0,0.5],[1,0.5]];portConstraint=eastwest;whiteSpace=wrap;html=1;" parent="Ro0mRmNBbLsTKMQBNC6t-18" vertex="1">
          <mxGeometry y="78" width="160" height="26" as="geometry" />
        </mxCell>
        <mxCell id="Ro0mRmNBbLsTKMQBNC6t-24" value="-consumo: Real" style="text;strokeColor=none;fillColor=none;align=left;verticalAlign=top;spacingLeft=4;spacingRight=4;overflow=hidden;rotatable=0;points=[[0,0.5],[1,0.5]];portConstraint=eastwest;whiteSpace=wrap;html=1;" parent="Ro0mRmNBbLsTKMQBNC6t-18" vertex="1">
          <mxGeometry y="104" width="160" height="26" as="geometry" />
        </mxCell>
        <mxCell id="Ro0mRmNBbLsTKMQBNC6t-20" value="" style="line;strokeWidth=1;fillColor=none;align=left;verticalAlign=middle;spacingTop=-1;spacingLeft=3;spacingRight=3;rotatable=0;labelPosition=right;points=[];portConstraint=eastwest;strokeColor=inherit;" parent="Ro0mRmNBbLsTKMQBNC6t-18" vertex="1">
          <mxGeometry y="130" width="160" height="8" as="geometry" />
        </mxCell>
        <mxCell id="Ro0mRmNBbLsTKMQBNC6t-21" value="+ getNombre():String" style="text;strokeColor=none;fillColor=none;align=left;verticalAlign=top;spacingLeft=4;spacingRight=4;overflow=hidden;rotatable=0;points=[[0,0.5],[1,0.5]];portConstraint=eastwest;whiteSpace=wrap;html=1;" parent="Ro0mRmNBbLsTKMQBNC6t-18" vertex="1">
          <mxGeometry y="138" width="160" height="26" as="geometry" />
        </mxCell>
        <mxCell id="Ro0mRmNBbLsTKMQBNC6t-25" value="+ getDescripcion():String" style="text;strokeColor=none;fillColor=none;align=left;verticalAlign=top;spacingLeft=4;spacingRight=4;overflow=hidden;rotatable=0;points=[[0,0.5],[1,0.5]];portConstraint=eastwest;whiteSpace=wrap;html=1;" parent="Ro0mRmNBbLsTKMQBNC6t-18" vertex="1">
          <mxGeometry y="164" width="160" height="26" as="geometry" />
        </mxCell>
        <mxCell id="Ro0mRmNBbLsTKMQBNC6t-26" value="+ getPrecio():Real" style="text;strokeColor=none;fillColor=none;align=left;verticalAlign=top;spacingLeft=4;spacingRight=4;overflow=hidden;rotatable=0;points=[[0,0.5],[1,0.5]];portConstraint=eastwest;whiteSpace=wrap;html=1;" parent="Ro0mRmNBbLsTKMQBNC6t-18" vertex="1">
          <mxGeometry y="190" width="160" height="26" as="geometry" />
        </mxCell>
        <mxCell id="Ro0mRmNBbLsTKMQBNC6t-27" value="+ getConsumo():Real" style="text;strokeColor=none;fillColor=none;align=left;verticalAlign=top;spacingLeft=4;spacingRight=4;overflow=hidden;rotatable=0;points=[[0,0.5],[1,0.5]];portConstraint=eastwest;whiteSpace=wrap;html=1;" parent="Ro0mRmNBbLsTKMQBNC6t-18" vertex="1">
          <mxGeometry y="216" width="160" height="26" as="geometry" />
        </mxCell>
        <mxCell id="Ro0mRmNBbLsTKMQBNC6t-28" value="Equipo" style="swimlane;fontStyle=1;align=center;verticalAlign=top;childLayout=stackLayout;horizontal=1;startSize=26;horizontalStack=0;resizeParent=1;resizeParentMax=0;resizeLast=0;collapsible=1;marginBottom=0;whiteSpace=wrap;html=1;" parent="1" vertex="1">
          <mxGeometry x="640" y="410" width="160" height="86" as="geometry" />
        </mxCell>
        <mxCell id="Ro0mRmNBbLsTKMQBNC6t-30" value="" style="line;strokeWidth=1;fillColor=none;align=left;verticalAlign=middle;spacingTop=-1;spacingLeft=3;spacingRight=3;rotatable=0;labelPosition=right;points=[];portConstraint=eastwest;strokeColor=inherit;" parent="Ro0mRmNBbLsTKMQBNC6t-28" vertex="1">
          <mxGeometry y="26" width="160" height="8" as="geometry" />
        </mxCell>
        <mxCell id="Ro0mRmNBbLsTKMQBNC6t-31" value="+ consumoTotal():Real" style="text;strokeColor=none;fillColor=none;align=left;verticalAlign=top;spacingLeft=4;spacingRight=4;overflow=hidden;rotatable=0;points=[[0,0.5],[1,0.5]];portConstraint=eastwest;whiteSpace=wrap;html=1;" parent="Ro0mRmNBbLsTKMQBNC6t-28" vertex="1">
          <mxGeometry y="34" width="160" height="26" as="geometry" />
        </mxCell>
        <mxCell id="Ro0mRmNBbLsTKMQBNC6t-32" value="+ precioFinal():Real" style="text;strokeColor=none;fillColor=none;align=left;verticalAlign=top;spacingLeft=4;spacingRight=4;overflow=hidden;rotatable=0;points=[[0,0.5],[1,0.5]];portConstraint=eastwest;whiteSpace=wrap;html=1;" parent="Ro0mRmNBbLsTKMQBNC6t-28" vertex="1">
          <mxGeometry y="60" width="160" height="26" as="geometry" />
        </mxCell>
        <mxCell id="Ro0mRmNBbLsTKMQBNC6t-33" value="" style="endArrow=open;html=1;endSize=12;startArrow=diamondThin;startSize=14;startFill=0;edgeStyle=orthogonalEdgeStyle;align=left;verticalAlign=bottom;rounded=0;" parent="1" source="Ro0mRmNBbLsTKMQBNC6t-28" target="Ro0mRmNBbLsTKMQBNC6t-18" edge="1">
          <mxGeometry x="-1" y="3" relative="1" as="geometry">
            <mxPoint x="330" y="280" as="sourcePoint" />
            <mxPoint x="490" y="280" as="targetPoint" />
          </mxGeometry>
        </mxCell>
        <mxCell id="Ro0mRmNBbLsTKMQBNC6t-53" value="componentes" style="edgeLabel;html=1;align=center;verticalAlign=middle;resizable=0;points=[];" parent="Ro0mRmNBbLsTKMQBNC6t-33" vertex="1" connectable="0">
          <mxGeometry x="-0.2242" relative="1" as="geometry">
            <mxPoint x="18" as="offset" />
          </mxGeometry>
        </mxCell>
        <mxCell id="Ro0mRmNBbLsTKMQBNC6t-34" value="" style="endArrow=open;html=1;endSize=12;startArrow=diamondThin;startSize=14;startFill=1;edgeStyle=orthogonalEdgeStyle;align=left;verticalAlign=bottom;rounded=0;" parent="1" source="Ro0mRmNBbLsTKMQBNC6t-13" target="Ro0mRmNBbLsTKMQBNC6t-18" edge="1">
          <mxGeometry x="-1" y="3" relative="1" as="geometry">
            <mxPoint x="330" y="280" as="sourcePoint" />
            <mxPoint x="490" y="280" as="targetPoint" />
          </mxGeometry>
        </mxCell>
        <mxCell id="Ro0mRmNBbLsTKMQBNC6t-54" value="lista" style="edgeLabel;html=1;align=center;verticalAlign=middle;resizable=0;points=[];" parent="Ro0mRmNBbLsTKMQBNC6t-34" vertex="1" connectable="0">
          <mxGeometry x="-0.0299" y="3" relative="1" as="geometry">
            <mxPoint as="offset" />
          </mxGeometry>
        </mxCell>
        <mxCell id="Ro0mRmNBbLsTKMQBNC6t-43" style="edgeStyle=orthogonalEdgeStyle;rounded=0;orthogonalLoop=1;jettySize=auto;html=1;" parent="1" source="Ro0mRmNBbLsTKMQBNC6t-35" target="Ro0mRmNBbLsTKMQBNC6t-39" edge="1">
          <mxGeometry relative="1" as="geometry" />
        </mxCell>
        <mxCell id="Ro0mRmNBbLsTKMQBNC6t-44" value="builder" style="edgeLabel;html=1;align=center;verticalAlign=middle;resizable=0;points=[];" parent="Ro0mRmNBbLsTKMQBNC6t-43" vertex="1" connectable="0">
          <mxGeometry x="-0.02" relative="1" as="geometry">
            <mxPoint as="offset" />
          </mxGeometry>
        </mxCell>
        <mxCell id="Ro0mRmNBbLsTKMQBNC6t-35" value="Director" style="swimlane;fontStyle=1;align=center;verticalAlign=top;childLayout=stackLayout;horizontal=1;startSize=26;horizontalStack=0;resizeParent=1;resizeParentMax=0;resizeLast=0;collapsible=1;marginBottom=0;whiteSpace=wrap;html=1;" parent="1" vertex="1">
          <mxGeometry x="156" y="48" width="196" height="86" as="geometry" />
        </mxCell>
        <mxCell id="Ro0mRmNBbLsTKMQBNC6t-37" value="" style="line;strokeWidth=1;fillColor=none;align=left;verticalAlign=middle;spacingTop=-1;spacingLeft=3;spacingRight=3;rotatable=0;labelPosition=right;points=[];portConstraint=eastwest;strokeColor=inherit;" parent="Ro0mRmNBbLsTKMQBNC6t-35" vertex="1">
          <mxGeometry y="26" width="196" height="8" as="geometry" />
        </mxCell>
        <mxCell id="Ro0mRmNBbLsTKMQBNC6t-38" value="+ armarPc(Builder builder): Equipo" style="text;strokeColor=none;fillColor=none;align=left;verticalAlign=top;spacingLeft=4;spacingRight=4;overflow=hidden;rotatable=0;points=[[0,0.5],[1,0.5]];portConstraint=eastwest;whiteSpace=wrap;html=1;" parent="Ro0mRmNBbLsTKMQBNC6t-35" vertex="1">
          <mxGeometry y="34" width="196" height="26" as="geometry" />
        </mxCell>
        <mxCell id="Ro0mRmNBbLsTKMQBNC6t-56" value="+ setPCBuilder(Builder builder)" style="text;strokeColor=none;fillColor=none;align=left;verticalAlign=top;spacingLeft=4;spacingRight=4;overflow=hidden;rotatable=0;points=[[0,0.5],[1,0.5]];portConstraint=eastwest;whiteSpace=wrap;html=1;" parent="Ro0mRmNBbLsTKMQBNC6t-35" vertex="1">
          <mxGeometry y="60" width="196" height="26" as="geometry" />
        </mxCell>
        <mxCell id="Ro0mRmNBbLsTKMQBNC6t-48" style="edgeStyle=orthogonalEdgeStyle;rounded=0;orthogonalLoop=1;jettySize=auto;html=1;" parent="1" source="Ro0mRmNBbLsTKMQBNC6t-39" target="Ro0mRmNBbLsTKMQBNC6t-13" edge="1">
          <mxGeometry relative="1" as="geometry">
            <Array as="points">
              <mxPoint x="400" y="262" />
              <mxPoint x="400" y="90" />
            </Array>
          </mxGeometry>
        </mxCell>
        <mxCell id="Ro0mRmNBbLsTKMQBNC6t-49" value="catalogo" style="edgeLabel;html=1;align=center;verticalAlign=middle;resizable=0;points=[];" parent="Ro0mRmNBbLsTKMQBNC6t-48" vertex="1" connectable="0">
          <mxGeometry x="-0.3387" y="1" relative="1" as="geometry">
            <mxPoint x="1" y="-21" as="offset" />
          </mxGeometry>
        </mxCell>
        <mxCell id="Ro0mRmNBbLsTKMQBNC6t-39" value="&lt;i&gt;PCBuilder&lt;/i&gt;" style="swimlane;fontStyle=1;align=center;verticalAlign=top;childLayout=stackLayout;horizontal=1;startSize=26;horizontalStack=0;resizeParent=1;resizeParentMax=0;resizeLast=0;collapsible=1;marginBottom=0;whiteSpace=wrap;html=1;" parent="1" vertex="1">
          <mxGeometry x="152" y="180" width="204" height="138" as="geometry" />
        </mxCell>
        <mxCell id="Ro0mRmNBbLsTKMQBNC6t-41" value="" style="line;strokeWidth=1;fillColor=none;align=left;verticalAlign=middle;spacingTop=-1;spacingLeft=3;spacingRight=3;rotatable=0;labelPosition=right;points=[];portConstraint=eastwest;strokeColor=inherit;" parent="Ro0mRmNBbLsTKMQBNC6t-39" vertex="1">
          <mxGeometry y="26" width="204" height="8" as="geometry" />
        </mxCell>
        <mxCell id="Ro0mRmNBbLsTKMQBNC6t-42" value="+ setCpu(String cpu)" style="text;strokeColor=none;fillColor=none;align=left;verticalAlign=top;spacingLeft=4;spacingRight=4;overflow=hidden;rotatable=0;points=[[0,0.5],[1,0.5]];portConstraint=eastwest;whiteSpace=wrap;html=1;fontStyle=2" parent="Ro0mRmNBbLsTKMQBNC6t-39" vertex="1">
          <mxGeometry y="34" width="204" height="26" as="geometry" />
        </mxCell>
        <mxCell id="Ro0mRmNBbLsTKMQBNC6t-45" value="+ setRam(String ram)" style="text;strokeColor=none;fillColor=none;align=left;verticalAlign=top;spacingLeft=4;spacingRight=4;overflow=hidden;rotatable=0;points=[[0,0.5],[1,0.5]];portConstraint=eastwest;whiteSpace=wrap;html=1;fontStyle=2" parent="Ro0mRmNBbLsTKMQBNC6t-39" vertex="1">
          <mxGeometry y="60" width="204" height="26" as="geometry" />
        </mxCell>
        <mxCell id="Ro0mRmNBbLsTKMQBNC6t-46" value="+ setGpu(String gpu)" style="text;strokeColor=none;fillColor=none;align=left;verticalAlign=top;spacingLeft=4;spacingRight=4;overflow=hidden;rotatable=0;points=[[0,0.5],[1,0.5]];portConstraint=eastwest;whiteSpace=wrap;html=1;fontStyle=2" parent="Ro0mRmNBbLsTKMQBNC6t-39" vertex="1">
          <mxGeometry y="86" width="204" height="26" as="geometry" />
        </mxCell>
        <mxCell id="Ro0mRmNBbLsTKMQBNC6t-47" value="+ setGabinete(String gabinete)" style="text;strokeColor=none;fillColor=none;align=left;verticalAlign=top;spacingLeft=4;spacingRight=4;overflow=hidden;rotatable=0;points=[[0,0.5],[1,0.5]];portConstraint=eastwest;whiteSpace=wrap;html=1;fontStyle=2" parent="Ro0mRmNBbLsTKMQBNC6t-39" vertex="1">
          <mxGeometry y="112" width="204" height="26" as="geometry" />
        </mxCell>
        <mxCell id="Ro0mRmNBbLsTKMQBNC6t-50" value="Extends" style="endArrow=block;endSize=16;endFill=0;html=1;rounded=0;" parent="1" source="Ro0mRmNBbLsTKMQBNC6t-5" target="Ro0mRmNBbLsTKMQBNC6t-39" edge="1">
          <mxGeometry width="160" relative="1" as="geometry">
            <mxPoint x="440" y="290" as="sourcePoint" />
            <mxPoint x="600" y="290" as="targetPoint" />
          </mxGeometry>
        </mxCell>
        <mxCell id="Ro0mRmNBbLsTKMQBNC6t-51" value="Extends" style="endArrow=block;endSize=16;endFill=0;html=1;rounded=0;" parent="1" source="Ro0mRmNBbLsTKMQBNC6t-9" target="Ro0mRmNBbLsTKMQBNC6t-39" edge="1">
          <mxGeometry width="160" relative="1" as="geometry">
            <mxPoint x="116" y="430" as="sourcePoint" />
            <mxPoint x="204" y="328" as="targetPoint" />
          </mxGeometry>
        </mxCell>
        <mxCell id="Ro0mRmNBbLsTKMQBNC6t-52" value="Extends" style="endArrow=block;endSize=16;endFill=0;html=1;rounded=0;" parent="1" source="Ro0mRmNBbLsTKMQBNC6t-1" target="Ro0mRmNBbLsTKMQBNC6t-39" edge="1">
          <mxGeometry width="160" relative="1" as="geometry">
            <mxPoint x="263" y="430" as="sourcePoint" />
            <mxPoint x="264" y="328" as="targetPoint" />
          </mxGeometry>
        </mxCell>
      </root>
    </mxGraphModel>
  </diagram>
</mxfile>
